{"title":"The.Trust.2016.BRRip.480p.x264.AAC-VYTO [P2PDL]","uid":14295906,"size":373994703,"categoryP":"video","categoryS":"movies","magnet":"?xt=urn:btih:e8229460a8ce2eba1eb5b0556a3dd16326a044ba&amp;dn=The.Trust.2016.BRRip.480p.x264.AAC-VYTO+%5BP2PDL%5D&amp;tr=udp%3A%2F%2Ftracker.leechers-paradise.org%3A6969&amp;tr=udp%3A%2F%2Fzer0day.ch%3A1337&amp;tr=udp%3A%2F%2Fopen.demonii.com%3A1337&amp;tr=udp%3A%2F%2Ftracker.coppersurfer.tk%3A6969&amp;tr=udp%3A%2F%2Fexodus.desync.com%3A6969","seeders":1,"leechers":3,"uploader":"VYTOP2PDL","files":6,"time":1460449573,"description":"____    ____ ____    ____ .___________.  ______   \r\n     /   /      /   / |           | /  __    \r\n    /   /      /   /  `---|  |----`|  |  |  | \r\n        /     _    _/       |  |     |  |  |  | \r\n       /        |  |         |  |     |  `--'  | \r\n    __/         |__|         |__|      ______/  \r\n                                                  \r\nPresenting Small Encodes with quality for years!\r\n                                                                                                   \r\n                                                                                                   \r\n\r\n\r\nThe.Trust.2016.BRRip.480p.x264.AAC-VYTO\r\n\r\n\r\nGenre: Crime, Thriller  \nhttp://www.imdb.com/title/tt3733774/\r\n\r\n\r\nFormat                                   : MPEG-4\r\nFile size                                : 351 MiB\r\nDuration                                 : 1h 31mn\r\nOverall bit rate                         : 535 Kbps\r\n\r\nVideo\r\nFormat                                   : AVC\r\nBit rate                                 : 492 Kbps\r\nWidth                                    : 720 pixels\r\nHeight                                   : 384 pixels\r\nDisplay aspect ratio                     : 1.85:1\r\nFrame rate mode                          : Constant\r\nFrame rate                               : 23.976 fps\r\nBit depth                                : 8 bits\r\nStream size                              : 323 MiB (92%)\r\nWriting library                          : x264\r\n\r\nAudio\r\nFormat                                   : AAC\r\nBit rate                                 : 40.0 Kbps\r\nChannel(s)                               : 2 channels\r\nChannel positions                        : Front: L R\r\nSampling rate                            : 48.0 KHz \r\nStream size                              : 26.2 MiB (7%)\r\nLanguage                                 : English\r\n\r\nSubtitle                                 : Yes (English)\r\n\r\nScreen Shots: (Clcik to view)\r\n \nhttps://ititli.com/XYF \nhttps://ititli.com/XYJ \nhttps://ititli.com/XY5 \nhttps://ititli.com/XYB \nhttps://ititli.com/XYN \nhttps://ititli.com/XYP \nhttps://ititli.com/XYf \nhttps://ititli.com/XYu \nhttps://ititli.com/XYv\r\n\r\n----------------------------------------------------------------------------------------------------\r\n\r\n\r\nEncoder Notes: Looking For Early Access To Anything You Can Provide WEBDL, DVDScr, DVDR, BluRay,\r\nDirect Audio, Music Releases and Seedboxes. If You Got anything to offer please contact us.\r\n\r\nSupport us by donating BC - 1FgwdzPsd1y25Gea8wP1qni35uGCtmkRCD\r\n\r\nFind us and join us!","torrent":{"xt":"urn:btih:e8229460a8ce2eba1eb5b0556a3dd16326a044ba","amp;dn":"The.Trust.2016.BRRip.480p.x264.AAC-VYTO+%5BP2PDL%5D","amp;tr":["udp%3A%2F%2Ftracker.leechers-paradise.org%3A6969","udp%3A%2F%2Fzer0day.ch%3A1337","udp%3A%2F%2Fopen.demonii.com%3A1337","udp%3A%2F%2Ftracker.coppersurfer.tk%3A6969","udp%3A%2F%2Fexodus.desync.com%3A6969"],"infoHash":"e8229460a8ce2eba1eb5b0556a3dd16326a044ba","infoHashBuffer":{"type":"Buffer","data":[232,34,148,96,168,206,46,186,30,181,176,85,106,61,209,99,38,160,68,186]},"announce":[],"urlList":[]}}